{"title":"Party.Hardcore.Gone.Crazy.Vol.3.WEB-DL.XXX.XViD-BTRG","uid":8873521,"size":1847611392,"categoryP":"porn","categoryS":"movies","magnet":"?xt=urn:btih:2667c28527c36efc6e8736c0ef9270404f8ceab3&amp;dn=Party.Hardcore.Gone.Crazy.Vol.3.WEB-DL.XXX.XViD-BTRG&amp;tr=udp%3A%2F%2Ftracker.openbittorrent.com%3A80&amp;tr=udp%3A%2F%2Fopen.demonii.com%3A1337&amp;tr=udp%3A%2F%2Ftracker.coppersurfer.tk%3A6969&amp;tr=udp%3A%2F%2Fexodus.desync.com%3A6969","seeders":0,"leechers":1,"uploader":"BTRG","files":1,"time":1378133391,"description":"\n\n\nFormat                                   : AVI\nFormat/Info                              : Audio Video Interleave\nFile size                                : 1.72 GiB\nDuration                                 : 2h 59mn\nOverall bit rate                         : 1 373 Kbps\nWriting application                      : VirtualDubMod 1.5.10.3 | www.virtualdub-fr.org || (build 2550/release)\nWriting library                          : VirtualDubMod build 2550/release\n\nVideo\nID                                       : 0\nFormat                                   : xvid\nCodec ID                                 : xvid\nDuration                                 : 2h 59mn\nBit rate                                 : 1 299 Kbps\nWidth                                    : 720 pixels\nHeight                                   : 400 pixels\nDisplay aspect ratio                     : 16:9\nFrame rate                               : 25.000 fps\nBits/(Pixel*Frame)                       : 0.180\nStream size                              : 1.63 GiB (95%)\n\nAudio\nID                                       : 1\nFormat                                   : AC-3\nFormat/Info                              : Audio Coding 3\nMode extension                           : CM (complete main)\nFormat settings, Endianness              : Big\nCodec ID                                 : 2000\nDuration                                 : 2h 59mn\nBit rate mode                            : Constant\nBit rate                                 : 64.0 Kbps\nChannel(s)                               : 2 channels\nChannel positions                        : Front: L R\nSampling rate                            : 44.1 KHz\nBit depth                                : 16 bits\nCompression mode                         : Lossy\nStream size                              : 82.1 MiB (5%)\nAlignment                                : Split accross interleaves\nInterleave, duration                     : 40 ms (1.00 video frame)\nInterleave, preload duration             : 500 ms","torrent":{"xt":"urn:btih:2667c28527c36efc6e8736c0ef9270404f8ceab3","amp;dn":"Party.Hardcore.Gone.Crazy.Vol.3.WEB-DL.XXX.XViD-BTRG","amp;tr":["udp%3A%2F%2Ftracker.openbittorrent.com%3A80","udp%3A%2F%2Fopen.demonii.com%3A1337","udp%3A%2F%2Ftracker.coppersurfer.tk%3A6969","udp%3A%2F%2Fexodus.desync.com%3A6969"],"infoHash":"2667c28527c36efc6e8736c0ef9270404f8ceab3","infoHashBuffer":{"type":"Buffer","data":[38,103,194,133,39,195,110,252,110,135,54,192,239,146,112,64,79,140,234,179]},"announce":[],"urlList":[]}}